<?xml version="1.0" standalone="no"?>
<!DOCTYPE svg PUBLIC "-//W3C//DTD SVG 20010904//EN"
 "http://www.w3.org/TR/2001/REC-SVG-20010904/DTD/svg10.dtd">
<svg version="1.0" xmlns="http://www.w3.org/2000/svg"
 width="28.000000pt" height="28.000000pt" viewBox="0 0 28.000000 28.000000"
 preserveAspectRatio="xMidYMid meet">

<g transform="translate(0.000000,28.000000) scale(0.100000,-0.100000)"
fill="#000000" stroke="none">
<path d="M20 260 c-17 -17 -20 -33 -20 -120 0 -136 4 -140 140 -140 136 0 140
4 140 140 0 136 -4 140 -140 140 -87 0 -103 -3 -120 -20z m69 -45 c-13 -13
-26 -20 -27 -14 -7 19 8 39 29 39 21 0 21 0 -2 -25z m123 0 c6 -30 4 -31 -22
-5 -25 25 -25 30 -1 30 12 0 20 -9 23 -25z m-57 -15 c4 -6 1 -17 -5 -26 -10
-11 -16 -12 -26 -3 -11 9 -11 15 -3 25 14 17 25 18 34 4z m-77 -90 c-1 -30 3
-44 18 -55 18 -15 18 -15 -6 -13 -22 3 -25 8 -27 43 -2 41 2 65 12 65 3 0 5
-18 3 -40z m132 16 c0 -14 -4 -28 -10 -31 -6 -4 -10 7 -10 24 0 17 5 31 10 31
6 0 10 -11 10 -24z m0 -66 c0 -14 -7 -20 -22 -20 -20 0 -21 1 -3 20 10 11 20
20 22 20 1 0 3 -9 3 -20z m-55 -10 c-8 -13 -35 -13 -35 0 0 6 9 10 21 10 11 0
17 -4 14 -10z"/>
</g>
</svg>
